<svg version="1.1" id="Layer_1" xmlns="http://www.w3.org/2000/svg" xmlns:xlink="http://www.w3.org/1999/xlink" x="0px" y="0px"
	 width="100%" viewBox="0 0 500 500" enable-background="new 0 0 500 500" xml:space="preserve">
<path fill="#FFFFFF" opacity="1.000000" stroke="none" 
	d="
M501.000000,7.000000 
	C501.000000,171.557220 501.000000,336.114441 501.000000,501.000000 
	C447.312347,501.000000 393.624023,501.000000 339.572754,500.541626 
	C339.209839,445.192322 339.209839,390.301453 339.209839,335.167297 
	C348.349762,335.167297 356.671570,335.173950 364.993347,335.165436 
	C373.665588,335.156555 376.012848,332.776703 376.012909,324.010254 
	C376.013550,218.378281 376.013306,112.746292 376.480103,7.064212 
	C418.297974,7.009405 459.648987,7.004703 501.000000,7.000000 
z"/>
<path fill="#FFFFFF" opacity="1.000000" stroke="none" 
	d="
M151.000000,501.000000 
	C101.033836,501.000000 51.067677,501.000000 1.000000,501.000000 
	C1.000000,336.645264 1.000000,172.290482 1.468657,7.467400 
	C39.553268,7.039411 77.169220,7.079728 114.777420,7.581041 
	C114.759262,113.974823 114.772079,219.907623 114.680771,325.840332 
	C114.675293,332.194305 116.425110,335.507843 123.997261,335.240570 
	C132.929153,334.925323 141.880692,335.166626 151.178131,335.166626 
	C151.178131,337.508270 151.178146,339.311829 151.178146,341.115387 
	C151.178146,380.756958 151.193039,420.398529 151.169968,460.040100 
	C151.162018,473.693420 151.059372,487.346710 151.000000,501.000000 
z"/>
<path fill="#FFFFFF" opacity="1.000000" stroke="none" 
	d="
M331.000000,501.000000 
	C273.979095,501.000000 216.958206,501.000000 159.551178,500.537659 
	C159.165054,445.173950 159.165054,390.272522 159.165054,335.167389 
	C168.285095,335.167389 176.610519,335.174072 184.935928,335.165527 
	C193.577393,335.156677 196.001480,332.731323 196.001572,324.072815 
	C196.002792,218.419724 196.000488,112.766617 196.466721,7.064178 
	C229.278992,7.049835 261.623657,7.084831 294.051361,7.317177 
	C294.228668,7.818642 294.431824,8.002233 294.771790,8.528981 
	C294.798462,114.276024 294.827545,219.559418 294.735260,324.842682 
	C294.728302,332.785400 296.161438,335.537201 305.012115,335.231323 
	C313.615845,334.933960 322.237915,335.166779 331.228485,335.166779 
	C331.228485,337.328979 331.228485,338.964081 331.228485,340.599213 
	C331.228485,392.407959 331.230591,444.216736 331.218872,496.025482 
	C331.218506,497.683655 331.076172,499.341827 331.000000,501.000000 
z"/>
<path fill="#000000" opacity="1.000000" stroke="none" 
	d="
M331.444153,501.000000 
	C331.076172,499.341827 331.218506,497.683655 331.218872,496.025482 
	C331.230591,444.216736 331.228485,392.407959 331.228485,340.599213 
	C331.228485,338.964081 331.228485,337.328979 331.228485,335.166779 
	C322.237915,335.166779 313.615845,334.933960 305.012115,335.231323 
	C296.161438,335.537201 294.728302,332.785400 294.735260,324.842682 
	C294.827545,219.559418 294.798462,114.276024 294.902832,8.302464 
	C295.019653,7.438343 295.033325,7.264422 295.511475,7.055418 
	C322.655090,7.051662 349.334167,7.082989 376.013275,7.114316 
	C376.013306,112.746292 376.013550,218.378281 376.012909,324.010254 
	C376.012848,332.776703 373.665588,335.156555 364.993347,335.165436 
	C356.671570,335.173950 348.349762,335.167297 339.209839,335.167297 
	C339.209839,390.301453 339.209839,445.192322 339.104919,500.541626 
	C336.629425,501.000000 334.258881,501.000000 331.444153,501.000000 
z"/>
<path fill="#000000" opacity="1.000000" stroke="none" 
	d="
M195.999100,7.113518 
	C196.000488,112.766617 196.002792,218.419724 196.001572,324.072815 
	C196.001480,332.731323 193.577393,335.156677 184.935928,335.165527 
	C176.610519,335.174072 168.285095,335.167389 159.165054,335.167389 
	C159.165054,390.272522 159.165054,445.173950 159.082520,500.537659 
	C156.629440,501.000000 154.258896,501.000000 151.444168,501.000000 
	C151.059372,487.346710 151.162018,473.693420 151.169968,460.040100 
	C151.193039,420.398529 151.178146,380.756958 151.178146,341.115387 
	C151.178146,339.311829 151.178131,337.508270 151.178131,335.166626 
	C141.880692,335.166626 132.929153,334.925323 123.997261,335.240570 
	C116.425110,335.507843 114.675293,332.194305 114.680771,325.840332 
	C114.772079,219.907623 114.759262,113.974823 115.257217,7.533372 
	C142.496216,7.054311 169.247665,7.083915 195.999100,7.113518 
z"/>
<path fill="#AB2740" opacity="1.000000" stroke="none" 
	d="
M196.466721,7.064178 
	C169.247665,7.083915 142.496216,7.054311 115.264977,7.072377 
	C77.169220,7.079728 39.553268,7.039411 1.468657,6.999547 
	C1.000000,5.001951 1.000000,3.003902 1.000000,1.004412 
	C167.666672,1.002972 334.333344,1.002972 501.000000,1.004458 
	C501.000000,2.670982 501.000000,4.336020 501.000000,6.500528 
	C459.648987,7.004703 418.297974,7.009405 376.480103,7.064212 
	C349.334167,7.082989 322.655090,7.051662 295.240356,7.012412 
	C294.325928,7.042934 294.147125,7.081380 293.968292,7.119827 
	C261.623657,7.084831 229.278992,7.049835 196.466721,7.064178 
z"/>
<path fill="#B5B5B5" opacity="1.000000" stroke="none" 
	d="
M294.051361,7.317177 
	C294.147125,7.081380 294.325928,7.042934 294.775818,7.047495 
	C295.033325,7.264422 295.019653,7.438343 294.874939,7.838781 
	C294.431824,8.002233 294.228668,7.818642 294.051361,7.317177 
z"/>
</svg>